<mxfile host="app.diagrams.net" modified="2023-05-25T08:29:55.917Z" agent="Mozilla/5.0 (Windows NT 10.0; Win64; x64) AppleWebKit/537.36 (KHTML, like Gecko) Chrome/113.0.0.0 Safari/537.36" etag="NejTfJBHYlFwJEY2U8QZ" version="21.3.3" type="github">
  <diagram name="第 1 页" id="F0THL2g3M8OFkQWsks51">
    <mxGraphModel dx="1050" dy="541" grid="1" gridSize="10" guides="1" tooltips="1" connect="1" arrows="1" fold="1" page="1" pageScale="1" pageWidth="3300" pageHeight="4681" math="0" shadow="0">
      <root>
        <mxCell id="0" />
        <mxCell id="1" parent="0" />
        <mxCell id="oA53Aowzp_5HexVHrF7j-1" value="管理员路由" style="rounded=0;whiteSpace=wrap;html=1;" vertex="1" parent="1">
          <mxGeometry x="290" y="320" width="120" height="60" as="geometry" />
        </mxCell>
        <mxCell id="oA53Aowzp_5HexVHrF7j-2" value="" style="endArrow=classic;html=1;rounded=0;entryX=0;entryY=0.5;entryDx=0;entryDy=0;" edge="1" parent="1" target="oA53Aowzp_5HexVHrF7j-1">
          <mxGeometry width="50" height="50" relative="1" as="geometry">
            <mxPoint x="160" y="350" as="sourcePoint" />
            <mxPoint x="630" y="390" as="targetPoint" />
          </mxGeometry>
        </mxCell>
        <mxCell id="oA53Aowzp_5HexVHrF7j-3" value="网络请求" style="edgeLabel;html=1;align=center;verticalAlign=middle;resizable=0;points=[];" vertex="1" connectable="0" parent="oA53Aowzp_5HexVHrF7j-2">
          <mxGeometry x="-0.1318" y="-2" relative="1" as="geometry">
            <mxPoint as="offset" />
          </mxGeometry>
        </mxCell>
        <mxCell id="oA53Aowzp_5HexVHrF7j-4" value="是否有管理员权限？" style="rhombus;whiteSpace=wrap;html=1;" vertex="1" parent="1">
          <mxGeometry x="440" y="310" width="140" height="80" as="geometry" />
        </mxCell>
        <mxCell id="oA53Aowzp_5HexVHrF7j-5" value="" style="endArrow=classic;html=1;rounded=0;exitX=1;exitY=0.5;exitDx=0;exitDy=0;entryX=0;entryY=0.5;entryDx=0;entryDy=0;" edge="1" parent="1" source="oA53Aowzp_5HexVHrF7j-1" target="oA53Aowzp_5HexVHrF7j-4">
          <mxGeometry width="50" height="50" relative="1" as="geometry">
            <mxPoint x="580" y="440" as="sourcePoint" />
            <mxPoint x="630" y="390" as="targetPoint" />
          </mxGeometry>
        </mxCell>
        <mxCell id="oA53Aowzp_5HexVHrF7j-6" value="" style="endArrow=classic;html=1;rounded=0;exitX=0.5;exitY=0;exitDx=0;exitDy=0;" edge="1" parent="1" source="oA53Aowzp_5HexVHrF7j-4">
          <mxGeometry width="50" height="50" relative="1" as="geometry">
            <mxPoint x="580" y="440" as="sourcePoint" />
            <mxPoint x="510" y="210" as="targetPoint" />
          </mxGeometry>
        </mxCell>
        <mxCell id="oA53Aowzp_5HexVHrF7j-7" value="否" style="edgeLabel;html=1;align=center;verticalAlign=middle;resizable=0;points=[];" vertex="1" connectable="0" parent="oA53Aowzp_5HexVHrF7j-6">
          <mxGeometry x="-0.18" y="-2" relative="1" as="geometry">
            <mxPoint as="offset" />
          </mxGeometry>
        </mxCell>
        <mxCell id="oA53Aowzp_5HexVHrF7j-29" style="edgeStyle=orthogonalEdgeStyle;rounded=0;orthogonalLoop=1;jettySize=auto;html=1;exitX=0.5;exitY=0;exitDx=0;exitDy=0;" edge="1" parent="1" source="oA53Aowzp_5HexVHrF7j-8" target="oA53Aowzp_5HexVHrF7j-22">
          <mxGeometry relative="1" as="geometry" />
        </mxCell>
        <mxCell id="oA53Aowzp_5HexVHrF7j-8" value="返回错误" style="rounded=0;whiteSpace=wrap;html=1;" vertex="1" parent="1">
          <mxGeometry x="450" y="150" width="120" height="60" as="geometry" />
        </mxCell>
        <mxCell id="oA53Aowzp_5HexVHrF7j-9" value="" style="endArrow=classic;html=1;rounded=0;exitX=1;exitY=0.5;exitDx=0;exitDy=0;" edge="1" parent="1" source="oA53Aowzp_5HexVHrF7j-4">
          <mxGeometry width="50" height="50" relative="1" as="geometry">
            <mxPoint x="690" y="420" as="sourcePoint" />
            <mxPoint x="670" y="350" as="targetPoint" />
          </mxGeometry>
        </mxCell>
        <mxCell id="oA53Aowzp_5HexVHrF7j-11" value="是" style="edgeLabel;html=1;align=center;verticalAlign=middle;resizable=0;points=[];" vertex="1" connectable="0" parent="oA53Aowzp_5HexVHrF7j-9">
          <mxGeometry x="-0.3723" y="-1" relative="1" as="geometry">
            <mxPoint x="12" y="-1" as="offset" />
          </mxGeometry>
        </mxCell>
        <mxCell id="oA53Aowzp_5HexVHrF7j-25" style="edgeStyle=orthogonalEdgeStyle;rounded=0;orthogonalLoop=1;jettySize=auto;html=1;exitX=1;exitY=0.5;exitDx=0;exitDy=0;" edge="1" parent="1" source="oA53Aowzp_5HexVHrF7j-13" target="oA53Aowzp_5HexVHrF7j-21">
          <mxGeometry relative="1" as="geometry" />
        </mxCell>
        <mxCell id="oA53Aowzp_5HexVHrF7j-27" value="是" style="edgeLabel;html=1;align=center;verticalAlign=middle;resizable=0;points=[];" vertex="1" connectable="0" parent="oA53Aowzp_5HexVHrF7j-25">
          <mxGeometry x="0.26" y="1" relative="1" as="geometry">
            <mxPoint x="-20" y="1" as="offset" />
          </mxGeometry>
        </mxCell>
        <mxCell id="oA53Aowzp_5HexVHrF7j-13" value="请求二级管理员接口？" style="rhombus;whiteSpace=wrap;html=1;" vertex="1" parent="1">
          <mxGeometry x="670" y="310" width="140" height="80" as="geometry" />
        </mxCell>
        <mxCell id="oA53Aowzp_5HexVHrF7j-23" style="edgeStyle=orthogonalEdgeStyle;rounded=0;orthogonalLoop=1;jettySize=auto;html=1;exitX=1;exitY=0.5;exitDx=0;exitDy=0;" edge="1" parent="1" source="oA53Aowzp_5HexVHrF7j-14" target="oA53Aowzp_5HexVHrF7j-21">
          <mxGeometry relative="1" as="geometry" />
        </mxCell>
        <mxCell id="oA53Aowzp_5HexVHrF7j-26" value="是" style="edgeLabel;html=1;align=center;verticalAlign=middle;resizable=0;points=[];" vertex="1" connectable="0" parent="oA53Aowzp_5HexVHrF7j-23">
          <mxGeometry x="-0.328" relative="1" as="geometry">
            <mxPoint as="offset" />
          </mxGeometry>
        </mxCell>
        <mxCell id="oA53Aowzp_5HexVHrF7j-14" value="是否有一级管理员权限？" style="rhombus;whiteSpace=wrap;html=1;" vertex="1" parent="1">
          <mxGeometry x="665" y="140" width="150" height="80" as="geometry" />
        </mxCell>
        <mxCell id="oA53Aowzp_5HexVHrF7j-15" value="" style="endArrow=classic;html=1;rounded=0;exitX=0.5;exitY=0;exitDx=0;exitDy=0;entryX=0.5;entryY=1;entryDx=0;entryDy=0;" edge="1" parent="1" source="oA53Aowzp_5HexVHrF7j-13" target="oA53Aowzp_5HexVHrF7j-14">
          <mxGeometry width="50" height="50" relative="1" as="geometry">
            <mxPoint x="580" y="310" as="sourcePoint" />
            <mxPoint x="630" y="260" as="targetPoint" />
          </mxGeometry>
        </mxCell>
        <mxCell id="oA53Aowzp_5HexVHrF7j-16" value="否" style="edgeLabel;html=1;align=center;verticalAlign=middle;resizable=0;points=[];" vertex="1" connectable="0" parent="oA53Aowzp_5HexVHrF7j-15">
          <mxGeometry x="-0.375" relative="1" as="geometry">
            <mxPoint y="-12" as="offset" />
          </mxGeometry>
        </mxCell>
        <mxCell id="oA53Aowzp_5HexVHrF7j-18" value="" style="endArrow=classic;html=1;rounded=0;exitX=0;exitY=0.5;exitDx=0;exitDy=0;entryX=1;entryY=0.5;entryDx=0;entryDy=0;" edge="1" parent="1" source="oA53Aowzp_5HexVHrF7j-14" target="oA53Aowzp_5HexVHrF7j-8">
          <mxGeometry width="50" height="50" relative="1" as="geometry">
            <mxPoint x="580" y="310" as="sourcePoint" />
            <mxPoint x="630" y="260" as="targetPoint" />
          </mxGeometry>
        </mxCell>
        <mxCell id="oA53Aowzp_5HexVHrF7j-19" value="否" style="edgeLabel;html=1;align=center;verticalAlign=middle;resizable=0;points=[];" vertex="1" connectable="0" parent="oA53Aowzp_5HexVHrF7j-18">
          <mxGeometry x="-0.1958" y="4" relative="1" as="geometry">
            <mxPoint y="-4" as="offset" />
          </mxGeometry>
        </mxCell>
        <mxCell id="oA53Aowzp_5HexVHrF7j-20" value="开始" style="rounded=1;whiteSpace=wrap;html=1;" vertex="1" parent="1">
          <mxGeometry x="50" y="320" width="120" height="60" as="geometry" />
        </mxCell>
        <mxCell id="oA53Aowzp_5HexVHrF7j-28" style="edgeStyle=orthogonalEdgeStyle;rounded=0;orthogonalLoop=1;jettySize=auto;html=1;exitX=1;exitY=0.5;exitDx=0;exitDy=0;" edge="1" parent="1" source="oA53Aowzp_5HexVHrF7j-21" target="oA53Aowzp_5HexVHrF7j-22">
          <mxGeometry relative="1" as="geometry" />
        </mxCell>
        <mxCell id="oA53Aowzp_5HexVHrF7j-21" value="响应请求" style="rounded=0;whiteSpace=wrap;html=1;" vertex="1" parent="1">
          <mxGeometry x="890" y="320" width="120" height="60" as="geometry" />
        </mxCell>
        <mxCell id="oA53Aowzp_5HexVHrF7j-22" value="结束" style="rounded=1;whiteSpace=wrap;html=1;" vertex="1" parent="1">
          <mxGeometry x="1070" y="320" width="120" height="60" as="geometry" />
        </mxCell>
      </root>
    </mxGraphModel>
  </diagram>
</mxfile>
